# xmcd CD database file
#
# Track frame offsets:
#	150
#	18749
#	35278
#	52414
#	70998
#	87527
#
# Disc length: 1393 seconds
#
# Revision: 2
# Processed by: cddbd v1.5.2PL0 Copyright (c) Steve Scherf et al.
# Submitted via: CDex 1.51
#
DISCID=55056f06
DTITLE=NMB48 - ナギイチ -Type-C-
DYEAR=2012
DGENRE=Blues
TTITLE0=ナギイチ
TTITLE1=理不尽ボール/アンダーガールズ
TTITLE2=初恋の行方とプレイボール/NMBセブン
TTITLE3=ナギイチ off -vocal ver.-
TTITLE4=理不尽ボール -off vocal ver.-
TTITLE5=初恋の行方とプレイボール -off vocal ver.-
EXTD=YEAR: 2012
EXTT0=
EXTT1=
EXTT2=
EXTT3=
EXTT4=
EXTT5=
PLAYORDER=
